<?xml version="1.0" standalone="no"?>
<!DOCTYPE svg PUBLIC "-//W3C//DTD SVG 20010904//EN"
 "http://www.w3.org/TR/2001/REC-SVG-20010904/DTD/svg10.dtd">
<svg version="1.0" xmlns="http://www.w3.org/2000/svg"
 width="400.000000pt" height="400.000000pt" viewBox="0 0 400.000000 400.000000"
 preserveAspectRatio="xMidYMid meet">
<metadata>
Created by potrace 1.14, written by Peter Selinger 2001-2017
</metadata>
<g transform="translate(0.000000,400.000000) scale(0.100000,-0.100000)"
fill="#000000" stroke="none">
<path d="M1858 3995 c-2 -1 -34 -5 -73 -9 -127 -11 -308 -51 -430 -94 -135
-49 -147 -54 -260 -111 -336 -171 -608 -426 -813 -761 -65 -107 -168 -337
-192 -429 -75 -292 -85 -362 -83 -616 1 -234 31 -414 103 -622 28 -81 34 -95
85 -208 34 -74 116 -219 127 -223 4 -2 8 -9 8 -15 0 -24 151 -208 260 -317
167 -168 326 -283 525 -379 50 -24 101 -50 115 -56 25 -13 202 -74 230 -80 8
-2 43 -10 78 -18 34 -9 63 -15 65 -15 1 0 13 -3 27 -6 92 -21 203 -30 370 -30
135 0 283 9 298 18 4 2 30 6 57 10 28 3 82 15 120 25 39 11 97 27 130 36 33 9
73 23 89 31 16 7 34 14 39 14 21 0 276 131 352 182 76 50 147 101 171 123 6 6
36 32 67 58 75 65 164 157 227 237 29 36 60 74 69 85 46 56 232 385 216 385
-3 0 1 10 9 23 15 23 82 217 90 261 3 14 7 29 9 33 3 5 8 24 11 43 3 19 10 59
16 89 5 29 13 81 17 115 9 77 9 386 0 446 -4 25 -9 68 -12 95 -3 28 -10 68
-16 90 -6 22 -13 53 -16 70 -7 45 -77 252 -108 320 -39 85 -96 198 -109 214
-11 14 -19 28 -49 80 -17 30 -45 69 -116 160 -70 91 -218 240 -305 306 -22 17
-61 47 -87 67 -27 20 -61 44 -76 53 -15 9 -41 24 -58 35 -78 51 -345 177 -345
163 0 -3 -6 -1 -12 5 -13 10 -75 31 -173 57 -46 12 -158 34 -260 51 -39 6
-381 14 -387 9z"/>
</g>
</svg>
